Coordinates
version=1
nRows=17
nColumns=40
inDegrees=yes

Units are S.I. units (second, meters, Newtons, ...)
If the header above contains a line with 'inDegrees', this indicates whether rotational values are in degrees (yes) or radians (no).

endheader
time	pelvis_tilt	pelvis_list	pelvis_rotation	pelvis_tx	pelvis_ty	pelvis_tz	hip_flexion_r	hip_adduction_r	hip_rotation_r	knee_angle_r	knee_angle_r_beta	ankle_angle_r	subtalar_angle_r	mtp_angle_r	hip_flexion_l	hip_adduction_l	hip_rotation_l	knee_angle_l	knee_angle_l_beta	ankle_angle_l	subtalar_angle_l	mtp_angle_l	lumbar_extension	lumbar_bending	lumbar_rotation	arm_flex_r	arm_add_r	arm_rot_r	elbow_flex_r	pro_sup_r	wrist_flex_r	wrist_dev_r	arm_flex_l	arm_add_l	arm_rot_l	elbow_flex_l	pro_sup_l	wrist_flex_l	wrist_dev_l
      0.00000000	     -0.51203167	      3.33653836	    -87.16256279	      0.19187424	      0.84750658	     -0.16049571	     -4.29279754	      4.62351501	     -9.34593110	     16.92141194	      0.29533435	     11.14275790	      0.00000000	      0.00000000	     30.39855608	     -2.82279690	     -7.04065586	      8.78330879	      0.15329766	     -4.63943386	      0.00000000	      0.00000000	     -3.27966533	     -0.54940232	     -2.46792069	     -6.85829121	     -6.55522029	      5.82240552	     37.56694599	     89.12737289	    -26.56561881	      1.89211166	     -9.51534780	     -7.94285239	      1.71257007	     39.99612978	     89.28987699	    -20.31231431	      1.51879480
      0.01000000	     -0.58788252	      3.45059491	    -87.24137887	      0.19280392	      0.84691697	     -0.15696657	     -4.41779489	      4.61006099	     -9.33960543	     16.95904836	      0.29599123	     11.13803457	      0.00000000	      0.00000000	     30.25028470	     -2.87494392	     -7.01936519	      8.77927585	      0.15322727	     -4.62623664	      0.00000000	      0.00000000	     -3.20485078	     -0.55513743	     -2.53221534	     -6.90961065	     -6.52443263	      5.83982628	     37.54152387	     89.12176259	    -26.56923619	      1.89225018	     -9.61425141	     -7.95701026	      1.73382005	     39.90747884	     89.26649004	    -20.31499730	      1.52646371
      0.02000000	     -0.69037388	      3.59681551	    -87.35927527	      0.19376982	      0.84634921	     -0.15323991	     -4.55034147	      4.62016737	     -9.28668564	     16.92845420	      0.29545726	     11.08574411	      0.00000000	      0.00000000	     30.01770265	     -2.94388893	     -7.02531310	      8.56287635	      0.14945039	     -4.50728484	      0.00000000	      0.00000000	     -3.07538479	     -0.52693078	     -2.52936175	     -6.94301233	     -6.51254665	      5.93319172	     37.38301574	     89.13511970	    -26.57504826	      1.90147930	     -9.66541997	     -7.93938420	      1.76776748	     39.66875473	     89.30765621	    -20.32220356	      1.53444531
      0.03000000	     -0.76193505	      3.72832588	    -87.43364934	      0.19477533	      0.84578406	     -0.14959082	     -4.66481869	      4.59636291	     -9.26578445	     16.95966899	      0.29600206	     11.06913755	      0.00000000	      0.00000000	     29.87446570	     -2.99269750	     -7.00439381	      8.56865570	      0.14955125	     -4.53084185	      0.00000000	      0.00000000	     -3.00622309	     -0.54511560	     -2.57526670	     -6.99070258	     -6.49047982	      5.95174382	     37.35748762	     89.11758770	    -26.57651714	      1.90189962	     -9.75272844	     -7.94789492	      1.78236318	     39.59146419	     89.23183605	    -20.32201020	      1.53947011
      0.04000000	     -0.83935826	      3.89897680	    -87.56501862	      0.19574992	      0.84528057	     -0.14565229	     -4.77839292	      4.58001705	     -9.15090838	     16.92182602	      0.29534158	     10.93459216	      0.00000000	      0.00000000	     29.60335602	     -3.04850087	     -7.04016033	      8.25829773	      0.14413449	     -4.59394533	      0.00000000	      0.00000000	     -2.82567871	     -0.55196565	     -2.57723906	     -7.01731506	     -6.47021508	      6.07494570	     37.13696370	     89.13165085	    -26.57638288	      1.91538799	     -9.80431528	     -7.92509349	      1.80350018	     39.27610344	     89.28081607	    -20.31994629	      1.54475374
      0.05000000	     -0.90374845	      4.04005219	    -87.63196190	      0.19686916	      0.84475036	     -0.14193515	     -4.88831887	      4.53869328	     -9.12885549	     16.95382462	      0.29590006	     10.91060089	      0.00000000	      0.00000000	     29.47881981	     -3.07744846	     -7.02122425	      8.26368286	      0.14422847	     -4.64927582	      0.00000000	      0.00000000	     -2.77517668	     -0.57153544	     -2.61815978	     -7.05274837	     -6.45508372	      6.09309468	     37.10987826	     89.11510531	    -26.57741636	      1.91521624	     -9.86145979	     -7.94083901	      1.81343867	     39.21507779	     89.21080049	    -20.31888611	      1.54624434
      0.06000000	     -0.89094384	      4.22448472	    -87.75840098	      0.19794112	      0.84443684	     -0.13787730	     -4.98043025	      4.41703267	     -8.96251944	     16.94237753	      0.29570027	     10.62222252	      0.00000000	      0.00000000	     29.17376616	     -3.03283248	     -7.08130998	      7.82156305	      0.13651203	     -5.13020076	      0.00000000	      0.00000000	     -2.60172304	     -0.67603602	     -2.63784272	     -7.02317695	     -6.41585719	      6.26467296	     36.77870093	     89.13945555	    -26.58001784	      1.92664105	     -9.87013173	     -7.93051100	      1.84059512	     38.79588879	     89.31350969	    -20.30841841	      1.53885328
      0.07000000	     -0.77936164	      4.33954071	    -87.88156212	      0.19905649	      0.84426433	     -0.13389030	     -5.13422001	      4.17561875	     -8.86727957	     16.96682883	      0.29612703	     10.40623955	      0.00000000	      0.00000000	     28.87381445	     -2.89851647	     -7.16337390	      7.51956133	      0.13124110	     -5.87173259	      0.00000000	      0.00000000	     -2.55522785	     -0.89915966	     -2.64509497	     -6.98332447	     -6.37957981	      6.50513861	     36.50174394	     89.12759373	    -26.60597344	      1.87290556	     -9.87817547	     -7.98292852	      1.95015290	     38.54184627	     89.27743923	    -20.28968916	      1.45099006
      0.08000000	     -0.68390914	      4.43298732	    -87.93312912	      0.20031346	      0.84417152	     -0.12985500	     -5.29715077	      3.95229272	     -8.84366186	     17.02584396	      0.29715704	     10.22885476	      0.00000000	      0.00000000	     28.58555072	     -2.74738261	     -7.24858039	      7.26803481	      0.12685114	     -6.43844099	      0.00000000	      0.00000000	     -2.55379633	     -1.09746324	     -2.73271494	     -6.93971075	     -6.31188208	      6.62521491	     36.25414540	     89.12293830	    -26.67410163	      1.80047771	     -9.88394410	     -8.01557034	      1.99547780	     38.29317219	     89.27200576	    -20.29911288	      1.37898319
      0.09000000	     -0.59152174	      4.53529283	    -87.95930896	      0.20161229	      0.84414965	     -0.12582824	     -5.44417423	      3.73111174	     -8.80848458	     17.08369795	      0.29816678	      9.97468157	      0.00000000	      0.00000000	     28.36503334	     -2.59370089	     -7.27158016	      7.09469303	      0.12382575	     -7.08190193	      0.00000000	      0.00000000	     -2.55923649	     -1.29265270	     -2.81930459	     -6.90350003	     -6.24166352	      6.70472617	     36.04436988	     89.11842456	    -26.74990905	      1.73581115	     -9.86670124	     -8.06249295	      2.03953124	     38.07386684	     89.27033285	    -20.31846185	      1.33554187
      0.10000000	     -0.64963916	      4.67463619	    -87.97742771	      0.20294124	      0.84403548	     -0.12174899	     -5.55508063	      3.66944210	     -8.78338830	     17.13067977	      0.29898677	      9.93005599	      0.00000000	      0.00000000	     28.27588082	     -2.59531093	     -7.25641814	      7.11485616	      0.12417767	     -7.17414668	      0.00000000	      0.00000000	     -2.54055921	     -1.32033729	     -2.87113338	     -6.94264343	     -6.20647645	      6.71077658	     36.01386563	     89.10617581	    -26.75662038	      1.73432083	     -9.89278304	     -8.08936704	      2.04380027	     38.02334719	     89.19999225	    -20.32095875	      1.33845958
      0.11000000	     -0.42762317	      4.81171325	    -87.95003204	      0.20439711	      0.84434564	     -0.11764490	     -5.64268776	      3.29393175	     -8.81590328	     17.21997171	      0.30054520	      9.31084386	      0.00000000	      0.00000000	     28.08022915	     -2.27907584	     -7.26390448	      6.84976134	      0.11955089	     -8.55580083	      0.00000000	      0.00000000	     -2.52176018	     -1.65993724	     -2.99633579	     -6.85879706	     -6.07435220	      6.76674433	     35.61250667	     89.11493750	    -26.87031632	      1.68671331	     -9.77486610	     -8.16685248	      2.19168059	     37.60472393	     89.26776712	    -20.34676328	      1.34448548
      0.12000000	     -0.33481443	      4.92904292	    -87.90992716	      0.20589324	      0.84459800	     -0.11355376	     -5.74783429	      3.06715794	     -8.69418529	     17.31732738	      0.30224438	      8.97019026	      0.00000000	      0.00000000	     27.99958393	     -2.09888385	     -7.17741936	      6.90586035	      0.12053000	     -9.09560155	      0.00000000	      0.00000000	     -2.54665753	     -1.84760491	     -3.12132894	     -6.82763491	     -5.98821487	      6.77883338	     35.49286722	     89.11117295	    -26.92847858	      1.65460053	     -9.70628453	     -8.22946890	      2.26913899	     37.41116497	     89.26891725	    -20.36501003	      1.35489501
      0.13000000	     -0.22592291	      5.07204999	    -87.86373249	      0.20744967	      0.84498155	     -0.10939282	     -5.83278606	      2.80622998	     -8.72178944	     17.38833174	      0.30348364	      8.46898493	      0.00000000	      0.00000000	     27.94392966	     -1.89645703	     -7.13403041	      6.93474148	      0.12103407	     -9.93278593	      0.00000000	      0.00000000	     -2.54560850	     -2.05340228	     -3.17872988	     -6.81336172	     -5.89285135	      6.77121859	     35.27825081	     89.10832574	    -27.01592056	      1.62664236	     -9.58238018	     -8.30051306	      2.41002505	     37.18094248	     89.28996249	    -20.39410254	      1.37931585
      0.14000000	     -0.11127360	      5.22827266	    -87.79118515	      0.20907638	      0.84544732	     -0.10498660	     -5.93317733	      2.53618235	     -8.81453802	     17.43947048	      0.30437618	      7.96462847	      0.00000000	      0.00000000	     27.86072007	     -1.66627917	     -7.10990085	      6.89616522	      0.12036079	    -10.85231115	      0.00000000	      0.00000000	     -2.49217704	     -2.26269310	     -3.24513832	     -6.84143960	     -5.79752212	      6.77481005	     35.07780989	     89.10444386	    -27.17741971	      1.53834894	     -9.46073893	     -8.40786142	      2.72278072	     36.92307178	     89.26760267	    -20.46376185	      1.41215980
      0.15000000	     -0.06464117	      5.35572635	    -87.76337492	      0.21064358	      0.84593167	     -0.10061282	     -6.03891784	      2.34716925	     -8.68261071	     17.52636426	      0.30589276	      7.60842847	      0.00000000	      0.00000000	     27.84937128	     -1.54095003	     -6.94981938	      7.12305350	      0.12432074	    -11.18184263	      0.00000000	      0.00000000	     -2.49312576	     -2.39712874	     -3.23982606	     -6.89787332	     -5.74563147	      6.76892006	     35.01268815	     89.09971591	    -27.21365931	      1.53379023	     -9.37635681	     -8.45714510	      2.76910272	     36.83102293	     89.28422523	    -20.48703970	      1.42913063
      0.16000000	      0.01196166	      5.58602375	    -87.66052750	      0.21245981	      0.84648661	     -0.09623318	     -6.04637404	      2.09910483	     -8.76741767	     17.56094221	      0.30649626	      6.76764249	      0.00000000	      0.00000000	     27.94223116	     -1.32797098	     -6.91368263	      7.29262825	      0.12728037	    -12.09622002	      0.00000000	      0.00000000	     -2.38596922	     -2.55214916	     -3.24742532	     -6.94384473	     -5.66214437	      6.70328776	     34.84891417	     89.09777616	    -27.37785988	      1.49632363	     -9.16832688	     -8.55875019	      3.15650603	     36.56235919	     89.27217575	    -20.58754902	      1.51385682
